<svg xmlns="http://www.w3.org/2000/svg" xmlns:xlink="http://www.w3.org/1999/xlink"><defs><clipPath id="a"><path fill="#fff" d="M0 0h33v38H0z"/></clipPath><clipPath id="a"><path fill="#fff" d="M0 0h101v18H0z"/></clipPath></defs><symbol id="logo-desctop"><g fill="none"><path d="M59.743 23.806A25.423 25.423 0 0 0 51.71 13.43a25.632 25.632 0 0 0-12.165-5.02 25.688 25.688 0 0 0-13.062 1.671 25.536 25.536 0 0 0-10.491 7.916 25.327 25.327 0 0 0-5.132 12.06 25.267 25.267 0 0 0 1.59 12.997 25.417 25.417 0 0 0 7.892 10.484 25.629 25.629 0 0 0 12.094 5.184 113.224 113.224 0 0 1-1.686-6.794c1.509.973 3.098 1.819 4.749 2.529 0 0 .12 2.142.28 4.533 1.783.03 3.566-.126 5.317-.466a2.108 2.108 0 0 1 0-.754c.29-1.855 1.088-5.198 1.247-7.35a15.108 15.108 0 0 0 2.894-3.68l-.06.436c-.549 4.226-1.696 8.74-2.395 9.989a5.534 5.534 0 0 1-.828 1.14 25.646 25.646 0 0 0 9.918-4.727 25.467 25.467 0 0 0 7.004-8.43 25.303 25.303 0 0 0 .867-21.341Zm-1.466 3.76c-.44.426-1.347.714-1.497-.576-.15-1.29-.19-2.192-.19-2.192s-1.925-3.402-2.643-3.442c-.719-.04-5.817 3.442-7.164 4.96-1.167 1.28-1.397 1.19-1.397 3.442 0 1.696.22 8.104.1 13.004l-8.131 2.153a64.17 64.17 0 0 1-7.783 1.706l-.997-5.783h-.14l-2.564-13.064s-3.801-1.428-5.198-1.815a3.772 3.772 0 0 0-3.991.625 5.005 5.005 0 0 0-1.726 3.819c.21.46.371.943.479 1.438.05.476-1.197.426-1.996.426-.798 0-.918-1.428-.289-3.104a22.571 22.571 0 0 1 1.816-3.71 11.776 11.776 0 0 1 2.065-2.867s.14-.337 1.247-.238c1.108.1 7.264.427 7.264.427l.05-2.252a143.265 143.265 0 0 1 20.193-1.33v1.816a22.576 22.576 0 0 1 8.122-1.984.912.912 0 0 1 .768.387c.34.427 2.405 2.976 2.644 3.343.67.953 1.28 1.947 1.826 2.976a6.174 6.174 0 0 1-.868 1.825v.01Z" fill="#FDC305"/><path d="M56.331 21.495c.47.595.878 1.121.998 1.28.67.953 1.28 1.947 1.826 2.976-.19.63-.48 1.226-.858 1.765-.44.427-1.347.714-1.497-.575-.15-1.29-.21-2.143-.21-2.143s-1.925-3.402-2.643-3.442c-.719-.04-5.817 3.442-7.164 4.96-1.167 1.28-1.397 1.19-1.397 3.442 0 1.488.17 6.596.13 11.14 1.806.198 4.46.694 5.258 1.864 0 0-.29-7.122 7.792-3.392 0 0 .28-9.711 11.434-7.221a43.584 43.584 0 0 0-13.669-10.654ZM45.825 19.194a89.212 89.212 0 0 0-1.397-16.397s-.15-1.29-.868-.238a14.084 14.084 0 0 0-1.197 3.968 71.13 71.13 0 0 0-12.79.337c-.819-2.728-2.215-3.968-2.884-3.64-.669.327-.748 3.253-.748 3.253l-.33 14.046a143.275 143.275 0 0 1 20.214-1.33Z" fill="#F06351"/><path d="M45.246 46.74c.13-1.062.2-2.47.24-4.028l-8.132 2.153a64.152 64.152 0 0 1-7.782 1.756l1.108 4.96c0 .108 0 .218.07.327 1.509.973 3.097 1.82 4.748 2.53a42.36 42.36 0 0 0 6.864-4.098v.06a15.113 15.113 0 0 0 2.884-3.66Z" fill="#E55645"/><path d="M31.927 16.09c-.05-.1.998.674 1.407.912.409.238.608.416.608.585 0 .169-.26.337-.618.337-.36 0-.918-.119-.998-.258-.08-.139.599 0 .938 0h.29a8.043 8.043 0 0 1-1.627-1.577ZM39.41 16.198s-.998 1.27-1.088 1.33c-.09.059-.17.337.19.287.412-.061.82-.154 1.217-.278.11-.06.07-.198-.12-.178-.19.02-.678.05-.997.109l.848-1.26s.03-.119-.05-.01ZM36.277 22.259a2.29 2.29 0 0 0 1.087-.992c.28-.655 0-.903-.438-.992a2.456 2.456 0 0 0-1.746.337c-.39.367-.34.724 0 .992.337.263.705.483 1.097.655Z" fill="#000"/><path d="M35.918 23.509c-.115.225-.27.427-.46.595-.283.227-.633.36-.997.377a2.184 2.184 0 0 1-1.536-.437 1.993 1.993 0 0 1-.53-.446 1 1 0 0 0-.358-.248s.748 4.077 2.564 4.731c1.816.655 2.155-.753 2.205-1.13a5.56 5.56 0 0 0-.819-3.214c0-.298-.02-.1-.07-.228Z" fill="#F06351"/><path d="M34.222 24.64a3.504 3.504 0 0 1-2.345-1.419.149.149 0 0 1 0-.198.138.138 0 0 1 .1-.042.14.14 0 0 1 .1.042 3.203 3.203 0 0 0 2.105 1.3 2.112 2.112 0 0 0 1.636-.993l.14-.188.1.218s.378.754.997.794c.619.04 1.057-.417 1.626-1.28a.144.144 0 0 1 .24.159c-.666.972-1.294 1.438-1.886 1.398a1.551 1.551 0 0 1-1.117-.724 2.251 2.251 0 0 1-1.696.933Z" fill="#000"/><path d="M36.177 37.99c2.066 0 3.741-1.665 3.741-3.719s-1.675-3.72-3.74-3.72c-2.067 0-3.742 1.666-3.742 3.72 0 2.054 1.675 3.72 3.741 3.72Z" fill="#FDC305"/><path d="m41.136 31.246-3.123 1.3 1.147-5.585-7.482 9.68 3.122-1.298-1.147 5.594 7.483-9.691Zm-7.373 3.799 4.15-5.366-.808 3.967 1.995-.813-4.18 5.376.808-3.968-1.965.804ZM32.366 33.587c.617 0 1.117-.498 1.117-1.111 0-.614-.5-1.111-1.117-1.111s-1.117.497-1.117 1.11c0 .614.5 1.112 1.117 1.112ZM38.871 37.614c.435 0 .788-.35.788-.784a.786.786 0 0 0-.788-.783.786.786 0 0 0-.788.783c0 .433.353.784.788.784ZM39.829 35.462a.348.348 0 1 0 0-.694.348.348 0 0 0-.35.346c0 .192.157.348.35.348Z" fill="#111"/><path d="M45.775 20.99a57.14 57.14 0 0 0-5.078 5.167 31.744 31.744 0 0 1-5.298 4.86c-.22-.525-1.626-1.507-1.626-1.507s-3.133-2.133-5.188-3.81a31.736 31.736 0 0 1-3.133-2.975l-1.996-.109a22.57 22.57 0 0 0 11.973 8.769c.858-.14 3.272-1.855 5.078-3.254a57.362 57.362 0 0 0 5.987-5.862 6.318 6.318 0 0 0 1.137-1.984c-1.137.377-1.856.704-1.856.704Z" fill="#F06351"/><path d="m65.07 3.472-8.44 9.364-1.217-1.974L63.544 0l1.527 3.472ZM62.507 17.12l5.527-4.076-.778-3.71-5.388 4.771.639 3.016ZM59.783 48.972l6.116 3.154 3.003-2.321-6.674-2.728-2.445 1.895ZM1.945 5.922l3.063-3.333 9.269 8.927-1.217 2.262L1.944 5.922ZM7.363 16.149l-4.69-3.105L.28 16.883l5.138 2.38 1.946-3.114ZM13.878 52.126l-4.54 3.323L12.133 59l4.01-3.988-2.264-2.886Z" fill="#FDC305"/><path d="M25.87 27.774s-3.8-1.428-5.197-1.815a3.771 3.771 0 0 0-3.991.625 5.004 5.004 0 0 0-1.726 3.819c.21.46.371.943.479 1.438.05.476-1.198.426-1.996.426s-.918-1.428-.29-3.104a22.571 22.571 0 0 1 1.817-3.71C9.528 28.27 0 34.777 0 34.777a45.981 45.981 0 0 1 8.171.238c5.238.526 4.989 4.632 4.989 4.632a38.754 38.754 0 0 1 5.617-1.1c2.115-.14 2.265 2.102 2.265 2.102l.529 3.83a18.221 18.221 0 0 1 2.644-2.342 6.07 6.07 0 0 1 4.37-1.29L25.87 27.775Z" fill="#F06351"/></g></symbol><symbol id="logo-mobile"><g fill="none"><g clip-path="url(#a)"><path d="M6.012 20.935V18.65a139.135 139.135 0 0 1 19.976-1.343c0 .606 0 1.222-.06 1.838 1.9-.86 3.896-1.477 5.943-1.838a16.767 16.767 0 0 0-6.767-8.285 16.248 16.248 0 0 0-10.306-2.398c-3.6.374-6.98 1.945-9.62 4.47a16.948 16.948 0 0 0-4.99 9.506l5.824.334ZM26.978 24.481c-1.149 1.293-1.376 1.213-1.376 3.486v9.275a16.692 16.692 0 0 0 5.425-6.052A17.08 17.08 0 0 0 33 23.237c-.013-1.051-.12-2.1-.317-3.132a32.856 32.856 0 0 0-5.705 4.375ZM6.299 25.987s-3.754-1.455-5.14-1.85A8.33 8.33 0 0 0 0 23.856a17.066 17.066 0 0 0 2.463 8.233A16.633 16.633 0 0 0 8.598 38L6.299 25.987Z" fill="#FDC305"/><path d="M26.038 17.297A92.51 92.51 0 0 0 24.65.657s-.139-1.304-.881-.243a14.583 14.583 0 0 0-1.189 3.981 68.295 68.295 0 0 0-12.647.344C9.15 2.02 7.774.758 7.11 1.01c-.664.253-.713 3.345-.713 3.345L6.071 18.6a139.094 139.094 0 0 1 19.967-1.303Z" fill="#F06351"/><path d="M12.29 14.145c0-.09.991.687 1.397.93.406.242.604.424.604.596s-.267.343-.623.343c-.357 0-.902-.12-.99-.272h1.217a8.34 8.34 0 0 1-1.604-1.597ZM19.699 14.256l-1.08 1.344c0 .06-.168.354.179.303.41-.062.814-.16 1.208-.293.109 0 .07-.192-.109-.172-.178.02-.683.051-.99.112l.832-1.274s.069-.13-.04-.02ZM16.59 20.41c.458-.207.838-.562 1.079-1.01.277-.658 0-.92-.436-1.011a2.367 2.367 0 0 0-1.723.343c-.387.364-.337.728-.05 1.01.348.27.727.494 1.13.668Z" fill="#000"/><path d="M16.193 21.672c-.111.231-.266.437-.456.607a1.693 1.693 0 0 1-.99.384 2.1 2.1 0 0 1-1.456-.435 2.289 2.289 0 0 1-.525-.444 1.059 1.059 0 0 0-.356-.263s.742 4.142 2.545 4.8c1.803.656 2.12-.759 2.179-1.143a5.758 5.758 0 0 0-.812-3.263c-.02-.313-.03-.111-.129-.243Z" fill="#F06351"/><path d="M14.569 22.824a3.364 3.364 0 0 1-1.3-.474 3.437 3.437 0 0 1-1.039-1.007.145.145 0 0 1 .076-.187.136.136 0 0 1 .153.031 3.22 3.22 0 0 0 2.09 1.314c.328-.025.646-.13.927-.306.28-.176.516-.417.687-.704l.139-.192.099.212s.366.768.99.808c.624.04 1.04-.414 1.595-1.293a.138.138 0 0 1 .198 0c.032.02.055.053.064.09a.154.154 0 0 1-.015.112c-.633 1.01-1.257 1.455-1.861 1.414a1.518 1.518 0 0 1-.642-.253 1.555 1.555 0 0 1-.468-.514 2.255 2.255 0 0 1-.74.67c-.294.165-.62.26-.953.28Z" fill="#000"/><path d="M25.988 19.116a58.7 58.7 0 0 0-5.021 5.244 31.579 31.579 0 0 1-5.24 4.94c-.217-.535-1.604-1.525-1.604-1.525s-3.1-2.162-5.13-3.86a34.1 34.1 0 0 1-3.1-3.03l-1.98-.112c2.861 4.25 7.05 7.384 11.884 8.892.852-.142 3.238-1.88 5.021-3.294a58.146 58.146 0 0 0 5.883-5.951c.498-.596.88-1.281 1.13-2.021-1.09.394-1.843.717-1.843.717Z" fill="#F06351"/></g></g></symbol><symbol id="logo-tablet"><g fill="none"><path d="M51.208 19.05a22.293 22.293 0 0 0-6.886-9.125A21.672 21.672 0 0 0 33.896 5.51a21.504 21.504 0 0 0-11.197 1.469 21.954 21.954 0 0 0-8.992 6.962 22.581 22.581 0 0 0-4.399 10.607 22.76 22.76 0 0 0 1.364 11.433 22.31 22.31 0 0 0 6.763 9.22 21.684 21.684 0 0 0 10.367 4.56c-.496-1.823-1-3.839-1.446-5.976 1.294.856 2.656 1.6 4.071 2.225 0 0 .103 1.884.24 3.987 1.529.027 3.057-.11 4.558-.41a1.908 1.908 0 0 1 0-.663c.248-1.632.932-4.572 1.069-6.465a13.243 13.243 0 0 0 2.48-3.237l-.052.384c-.47 3.716-1.453 7.686-2.052 8.785a4.865 4.865 0 0 1-.71 1.004 21.747 21.747 0 0 0 8.501-4.158 22.278 22.278 0 0 0 6.004-7.416 22.77 22.77 0 0 0 .743-18.77Zm-1.257 3.308c-.376.375-1.154.628-1.283-.507a30.81 30.81 0 0 1-.162-1.928s-1.65-2.992-2.266-3.027c-.616-.035-4.986 3.027-6.14 4.362-1.001 1.126-1.198 1.047-1.198 3.028 0 1.491.188 7.127.086 11.437l-6.97 1.894a53.797 53.797 0 0 1-6.67 1.5l-.856-5.086h-.12l-2.197-11.49s-3.259-1.257-4.456-1.597a3.157 3.157 0 0 0-1.79-.235 3.189 3.189 0 0 0-1.63.785 4.418 4.418 0 0 0-1.1 1.515 4.499 4.499 0 0 0-.38 1.844c.18.405.318.83.41 1.265.043.419-1.026.375-1.71.375-.684 0-.787-1.256-.248-2.73.42-1.135.941-2.227 1.556-3.264a10.352 10.352 0 0 1 1.77-2.521s.12-.297 1.07-.21c.949.088 6.225.375 6.225.375l.043-1.98a119.71 119.71 0 0 1 17.31-1.169v1.597a18.947 18.947 0 0 1 6.96-1.745.765.765 0 0 1 .659.34c.29.375 2.06 2.617 2.266 2.94a24.51 24.51 0 0 1 1.565 2.617 5.493 5.493 0 0 1-.744 1.606v.009Z" fill="#FDC305"/><path d="M48.284 17.018c.402.523.752.986.855 1.125a24.51 24.51 0 0 1 1.565 2.618 5.493 5.493 0 0 1-.735 1.553c-.377.375-1.155.628-1.283-.506-.128-1.134-.18-1.885-.18-1.885s-1.65-2.992-2.266-3.027c-.616-.035-4.986 3.027-6.14 4.362-1 1.126-1.197 1.047-1.197 3.028 0 1.308.145 5.801.11 9.797 1.549.175 3.823.61 4.508 1.64 0 0-.248-6.264 6.679-2.983 0 0 .239-8.542 9.8-6.352a37.507 37.507 0 0 0-11.716-9.37ZM39.279 14.994A80.462 80.462 0 0 0 38.08.572s-.128-1.134-.744-.209a12.63 12.63 0 0 0-1.026 3.49 59.424 59.424 0 0 0-10.963.296C24.647 1.75 23.449.66 22.876.948c-.573.287-.641 2.861-.641 2.861l-.282 12.354c5.74-.809 11.53-1.2 17.326-1.169Z" fill="#F06351"/><path d="M38.782 39.222c.111-.934.171-2.172.205-3.542l-6.97 1.893a53.8 53.8 0 0 1-6.67 1.544l.95 4.363c0 .096 0 .191.06.287 1.294.856 2.655 1.6 4.07 2.225a36.127 36.127 0 0 0 5.884-3.603v.052a13.243 13.243 0 0 0 2.471-3.22Z" fill="#E55645"/><path d="M27.366 12.263c-.043-.087.855.594 1.206.803.35.21.521.366.521.515 0 .148-.222.296-.53.296-.308 0-.787-.104-.855-.227-.068-.122.513 0 .804 0h.248a6.98 6.98 0 0 1-1.394-1.387ZM33.78 12.36s-.855 1.116-.932 1.168c-.077.053-.146.297.162.253a6.81 6.81 0 0 0 1.044-.244c.094-.052.06-.175-.103-.157-.163.017-.582.044-.855.096l.727-1.108s.025-.105-.043-.009ZM31.095 17.69c.396-.178.724-.485.932-.873.24-.575 0-.794-.377-.872a2.061 2.061 0 0 0-1.496.297c-.334.322-.29.636 0 .872.289.231.605.425.94.576Z" fill="#000"/><path d="M30.787 18.79a1.785 1.785 0 0 1-.394.523c-.243.2-.543.316-.855.331-.47.047-.942-.09-1.317-.384a1.722 1.722 0 0 1-.453-.392.855.855 0 0 0-.308-.218s.641 3.585 2.198 4.161c1.556.576 1.847-.663 1.89-.994a4.99 4.99 0 0 0-.701-2.827c0-.262-.018-.087-.06-.2Z" fill="#F06351"/><path d="M29.333 19.784c-.4-.059-.785-.2-1.13-.414a3.016 3.016 0 0 1-.88-.834.132.132 0 0 1 0-.174.119.119 0 0 1 .132-.027.12.12 0 0 1 .04.027c.21.303.48.56.79.756.309.196.654.327 1.014.387a1.78 1.78 0 0 0 .804-.264c.244-.152.449-.36.598-.609l.12-.166.085.192s.325.663.856.698c.53.035.906-.366 1.393-1.125a.121.121 0 0 1 .171-.035.128.128 0 0 1 .034.174c-.57.855-1.108 1.265-1.616 1.23a1.309 1.309 0 0 1-.55-.207 1.34 1.34 0 0 1-.407-.43 1.946 1.946 0 0 1-.636.578c-.252.142-.531.225-.818.243Z" fill="#000"/><path d="M31.009 31.527c1.771 0 3.207-1.465 3.207-3.272 0-1.807-1.436-3.271-3.207-3.271s-3.207 1.464-3.207 3.271 1.436 3.272 3.207 3.272Z" fill="#FDC305"/><path d="m35.259 25.594-2.677 1.143.984-4.912-6.414 8.515 2.677-1.142-.984 4.92 6.414-8.524Zm-6.32 3.342 3.558-4.72-.693 3.49 1.71-.716-3.583 4.729.693-3.49-1.684.707ZM27.742 27.653a.968.968 0 0 0 .958-.977.968.968 0 0 0-.958-.977.968.968 0 0 0-.957.977c0 .54.428.977.957.977ZM33.318 31.195a.683.683 0 0 0 .676-.689c0-.38-.303-.69-.676-.69a.683.683 0 0 0-.675.69c0 .38.302.69.675.69ZM34.14 29.302c.164 0 .298-.137.298-.305a.302.302 0 0 0-.299-.306c-.165 0-.3.137-.3.306 0 .168.135.305.3.305Z" fill="#111"/><path d="M39.236 16.573a49.68 49.68 0 0 0-4.353 4.546 27.484 27.484 0 0 1-4.54 4.275c-.19-.463-1.395-1.326-1.395-1.326s-2.685-1.876-4.447-3.35a27.527 27.527 0 0 1-2.685-2.618l-1.71-.096c2.468 3.68 6.085 6.397 10.262 7.712.735-.122 2.805-1.631 4.353-2.861a49.809 49.809 0 0 0 5.13-5.156 5.597 5.597 0 0 0 .976-1.745c-.975.331-1.591.62-1.591.62ZM22.175 22.54s-3.258-1.256-4.456-1.596a3.158 3.158 0 0 0-1.789-.235 3.19 3.19 0 0 0-1.631.785 4.418 4.418 0 0 0-1.099 1.515 4.499 4.499 0 0 0-.38 1.844c.18.405.318.83.41 1.265.043.419-1.027.375-1.71.375-.685 0-.787-1.256-.249-2.73.42-1.135.942-2.227 1.557-3.264C8.168 22.977 0 28.7 0 28.7a38.402 38.402 0 0 1 7.004.21c4.49.462 4.276 4.074 4.276 4.074a32.466 32.466 0 0 1 4.815-.968c1.813-.123 1.94 1.85 1.94 1.85l.454 3.367c.688-.76 1.447-1.45 2.266-2.06a5.111 5.111 0 0 1 3.746-1.133l-2.326-11.5Z" fill="#F06351"/></g></symbol><symbol id="logo-text-desctop"><g fill="none"><path d="M1.424 19.216a7.92 7.92 0 0 1-1.403-5.06V6.844a8.041 8.041 0 0 1 1.382-5.109C2.332.572 3.918-.006 6.163 0c2.244.007 3.764.517 4.559 1.53a6.428 6.428 0 0 1 1.333 4.378v1.716H7.906V5.762a9.494 9.494 0 0 0-.13-1.463 1.622 1.622 0 0 0-.47-.926 1.576 1.576 0 0 0-1.153-.36 1.499 1.499 0 0 0-.87.134c-.27.131-.49.34-.633.597a5.202 5.202 0 0 0-.34 2.145v9.28a4.55 4.55 0 0 0 .39 2.146c.145.243.36.44.617.567.258.126.549.176.836.144.282.04.57-.01.821-.14.252-.129.456-.332.582-.581.242-.686.347-1.41.31-2.135v-1.95h4.149v1.687a6.925 6.925 0 0 1-1.233 4.494C9.9 20.474 8.377 21 6.213 21s-3.858-.585-4.79-1.784ZM17.706.283h4.75l4.008 20.473h-3.948l-.711-4.523h-3.327l-.802 4.494H13.67L17.706.283Zm3.658 13.376L20.1 5.43 18.85 13.66h2.515ZM29.54 3.364h-3.246V.283h10.741v3.08H33.83v17.364H29.53l.01-17.363Z" fill="#111"/><path d="M45.463.283h8.146v2.125H48.4v6.756h4.228v2.018H48.4v7.498h5.26v2.047h-8.196V.283ZM56.025.283h2.004l6.012 13.58V.284h2.444v20.473h-1.873L58.6 6.796v13.931h-2.485L56.025.283ZM69.722.283h8.137v2.125h-5.21v6.756h4.268v2.018h-4.229v7.498h5.23v2.047h-8.196V.283ZM80.274.283h4.228a7.156 7.156 0 0 1 4.68 1.277c1.002.848 1.492 2.233 1.492 4.153 0 2.6-.865 4.19-2.595 4.767l3.006 10.247H88.24l-2.756-9.593H83.21v9.593h-2.936V.283Zm4.008 8.774c.965.091 1.93-.173 2.705-.74.315-.363.55-.785.692-1.24.141-.454.185-.931.13-1.403a5.561 5.561 0 0 0-.29-1.95 1.835 1.835 0 0 0-.392-.625 1.893 1.893 0 0 0-.61-.428 4.888 4.888 0 0 0-2.055-.34H83.17v6.765l1.112-.039ZM94.623 19.216A8.825 8.825 0 0 1 93.35 14V7.176a12.826 12.826 0 0 1 .502-3.9 4.375 4.375 0 0 1 1.743-2.35 6.05 6.05 0 0 1 3.367-.819 5.41 5.41 0 0 1 2.258.271c.723.25 1.382.65 1.93 1.172a6.686 6.686 0 0 1 1.282 4.514v.76h-2.755v-.633a10.929 10.929 0 0 0-.18-2.262 1.946 1.946 0 0 0-.762-1.2 3.072 3.072 0 0 0-1.723-.399 2.573 2.573 0 0 0-1.814.546 2.475 2.475 0 0 0-.771 1.443 14.046 14.046 0 0 0-.17 2.428v7.594a7.146 7.146 0 0 0 .59 3.374c.272.326.617.589 1.01.766a2.902 2.902 0 0 0 2.493-.049c.384-.192.718-.468.976-.805a7.725 7.725 0 0 0 .612-3.559v-1.443h-2.666v-2.018h5.311v10.12h-1.814l-.29-2.35a3.601 3.601 0 0 1-1.403 1.936 3.77 3.77 0 0 1-2.335.668 4.785 4.785 0 0 1-2.292-.368 4.653 4.653 0 0 1-1.826-1.397ZM110.675 13.513 106.136.283h2.726l3.216 9.866 3.167-9.866H118l-4.509 13.23v7.214h-2.806l-.01-7.214Z" fill="#444"/></g></symbol><symbol id="logo-text"><g fill="none"><g clip-path="url(#a)" fill="#111"><path d="M1.264 16.538A6.865 6.865 0 0 1 0 12.231V5.846a6.95 6.95 0 0 1 1.185-4.384C2.055.462 3.398 0 5.374 0s3.24.462 4.03 1.308a5.422 5.422 0 0 1 1.186 3.769v1.538H6.718V4.846a3.693 3.693 0 0 0-.238-1.538 1.12 1.12 0 0 0-.456-.473 1.163 1.163 0 0 0-.65-.143c-.553 0-.948.154-1.106.539a4.846 4.846 0 0 0-.237 1.692v8.23a3.111 3.111 0 0 0 .316 1.616c.158.385.553.539 1.106.539s.87-.154 1.027-.539c.18-.52.26-1.067.238-1.615v-1.846h3.872v1.538a5.775 5.775 0 0 1-1.185 3.846c-.79.923-2.134 1.385-4.031 1.385-1.897-.077-3.32-.539-4.11-1.539ZM15.253.232h4.504l3.32 17.538H19.44l-.632-3.692h-2.608l-.632 3.692h-3.715L15.253.232Zm3.24 11.538-.948-6.846-.949 6.846h1.897ZM25.843 3.155h-2.687V.232h9.404v2.846h-2.687V17.77h-4.03V3.155ZM39.752.232h6.955v1.846h-4.505v5.77h3.635v1.768h-3.635v6.462h4.505v1.77h-7.034V.231h.079ZM48.761.232H50.5l5.137 11.615V.232h2.055V17.77h-1.58l-5.217-12v12h-2.134V.232ZM60.063.232h6.954v1.846h-4.504v5.77h3.635v1.768h-3.635v6.462h4.504v1.77h-6.954V.231ZM69.072.232h3.635a6.451 6.451 0 0 1 4.03 1.077c.87.692 1.265 1.923 1.265 3.538 0 2.231-.71 3.616-2.212 4.077l2.528 8.77h-2.45l-2.37-8.231h-1.976v8.23h-2.529V.233h.079Zm3.477 7.538a3.524 3.524 0 0 0 2.292-.615c.474-.385.711-1.154.711-2.308a4.846 4.846 0 0 0-.237-1.692 1.974 1.974 0 0 0-.869-.923 3.69 3.69 0 0 0-1.739-.308h-1.106v5.77h.948v.076ZM81.163 16.463A7.613 7.613 0 0 1 80.058 12V6.155c-.02-1.115.114-2.227.395-3.308a3.916 3.916 0 0 1 1.502-2c.882-.508 1.9-.75 2.924-.692 1.66 0 2.845.384 3.556 1.23a5.77 5.77 0 0 1 1.107 3.847v.615H87.17V5.31a11.03 11.03 0 0 0-.158-1.923 1.533 1.533 0 0 0-.633-1A2.493 2.493 0 0 0 84.878 2a2.417 2.417 0 0 0-1.58.462 1.703 1.703 0 0 0-.632 1.23 14.01 14.01 0 0 0-.159 2.077v6.539a6.818 6.818 0 0 0 .474 2.923c.316.615.949.846 1.897.846.374.045.754-.018 1.092-.182.337-.165.617-.422.805-.741a6.909 6.909 0 0 0 .553-3.077v-1.23h-2.292v-1.77h4.584v8.692h-1.58l-.238-2a3.144 3.144 0 0 1-1.226 1.658 3.288 3.288 0 0 1-2.014.573 4.045 4.045 0 0 1-1.899-.352 3.933 3.933 0 0 1-1.5-1.186ZM94.678 11.618 90.805.31h2.371l2.766 8.462L98.63.31H101l-3.873 11.308v6.154h-2.37v-6.154h-.08Z"/></g></g></symbol></svg>